<svg width="208" height="48" viewBox="0 0 208 48" fill="none" xmlns="http://www.w3.org/2000/svg">
<path d="M207.5 12.8V35.2C207.5 37.4485 207.5 39.1047 207.393 40.4137C207.286 41.7168 207.077 42.6315 206.683 43.4049C205.964 44.8161 204.816 45.9635 203.405 46.6825C202.632 47.0766 201.717 47.2862 200.414 47.3927C199.105 47.4996 197.448 47.5 195.2 47.5H12.8C10.5515 47.5 8.89526 47.4996 7.58633 47.3927C6.28324 47.2862 5.36848 47.0766 4.59507 46.6825C3.18386 45.9635 2.0365 44.8161 1.31745 43.4049C0.923377 42.6315 0.7138 41.7168 0.607333 40.4137C0.500389 39.1047 0.5 37.4485 0.5 35.2V18.6495C0.5 16.3283 0.504327 15.2632 0.776624 14.2886C1.02166 13.4115 1.42438 12.5864 1.96506 11.8536C2.56589 11.0394 3.40295 10.3807 5.23286 8.95266L8.44985 6.44221L12.9755 3.00492C14.2639 2.02632 14.8564 1.57904 15.5049 1.26204C16.0893 0.976353 16.7084 0.76791 17.3465 0.641952C18.0547 0.502183 18.7971 0.5 20.415 0.5H195.2C197.448 0.5 199.105 0.500389 200.414 0.607333C201.717 0.7138 202.632 0.923377 203.405 1.31745C204.816 2.0365 205.964 3.18386 206.683 4.59507C207.077 5.36848 207.286 6.28324 207.393 7.58633C207.5 8.89527 207.5 10.5515 207.5 12.8Z" fill="#00C6F7" fill-opacity="0.06" stroke="#00C6F7"/>
</svg>
